Coordinates
version=1
nRows=17
nColumns=40
inDegrees=yes

Units are S.I. units (second, meters, Newtons, ...)
If the header above contains a line with 'inDegrees', this indicates whether rotational values are in degrees (yes) or radians (no).

endheader
time	pelvis_tilt	pelvis_list	pelvis_rotation	pelvis_tx	pelvis_ty	pelvis_tz	hip_flexion_r	hip_adduction_r	hip_rotation_r	knee_angle_r	knee_angle_r_beta	ankle_angle_r	subtalar_angle_r	mtp_angle_r	hip_flexion_l	hip_adduction_l	hip_rotation_l	knee_angle_l	knee_angle_l_beta	ankle_angle_l	subtalar_angle_l	mtp_angle_l	lumbar_extension	lumbar_bending	lumbar_rotation	arm_flex_r	arm_add_r	arm_rot_r	elbow_flex_r	pro_sup_r	wrist_flex_r	wrist_dev_r	arm_flex_l	arm_add_l	arm_rot_l	elbow_flex_l	pro_sup_l	wrist_flex_l	wrist_dev_l
      0.00000000	     -4.90868271	     -3.16982844	   -178.75995102	      0.20628906	      0.94392383	     -0.92060158	     -4.45966631	     -9.02896322	    -15.25379566	      4.95775680	      0.08652918	      3.10980865	      0.00000000	      0.00000000	     -3.15431951	     -1.71522915	     -4.93850612	      4.91481589	      0.08577972	      3.10717292	      0.00000000	      0.00000000	    -12.08583527	     -3.37062549	     -1.06816374	    -10.25416427	    -66.76034819	    -55.55762271	     33.33005001	     32.58933301	      0.00000000	      0.00000000	    -17.86931881	    -72.84001250	    -53.31953427	     27.08858527	     87.08387883	      0.00000000	      0.00000000
      0.00500000	     -4.89963764	     -3.30476294	   -178.80598796	      0.20633007	      0.94387486	     -0.92067175	     -4.37096742	     -9.21498338	    -15.26570173	      5.14822883	      0.08985354	      3.47979359	      0.00000000	      0.00000000	     -3.16175618	     -1.55469214	     -4.95606112	      4.88561209	      0.08527002	      3.16532783	      0.00000000	      0.00000000	    -12.07085819	     -3.51988631	     -1.04625200	    -10.20661575	    -66.74656213	    -55.48437449	     33.40137892	     32.43969629	      0.00000000	      0.00000000	    -17.48675637	    -72.92391017	    -53.07281449	     26.86809534	     87.26841487	      0.00000000	      0.00000000
      0.01000000	     -4.85567107	     -3.30476760	   -178.79466965	      0.20632519	      0.94379707	     -0.92067120	     -4.32053180	     -9.21421250	    -15.26888029	      5.15747239	      0.09001487	      3.49925585	      0.00000000	      0.00000000	     -3.08619182	     -1.55860342	     -4.94604515	      4.96631620	      0.08667857	      3.31228011	      0.00000000	      0.00000000	    -12.02110996	     -3.52107980	     -1.06067158	    -10.22749673	    -66.69411396	    -55.49154894	     33.52537221	     32.32376308	      0.00000000	      0.00000000	    -17.43379071	    -72.99730264	    -52.93806145	     26.69642349	     87.41770169	      0.00000000	      0.00000000
      0.01500000	     -4.83439733	     -3.30578245	   -178.79733464	      0.20637307	      0.94377117	     -0.92070293	     -4.28706815	     -9.21872426	    -15.25111430	      5.17543224	      0.09032833	      3.52860042	      0.00000000	      0.00000000	     -3.06737390	     -1.55883957	     -4.92936124	      4.94636007	      0.08633027	      3.29484737	      0.00000000	      0.00000000	    -12.00486226	     -3.52398977	     -1.03760959	    -10.30338137	    -66.66745648	    -55.56955388	     33.56675552	     32.12288163	      0.00000000	      0.00000000	    -17.36319410	    -73.01194505	    -52.87153472	     26.68710950	     87.43452766	      0.00000000	      0.00000000
      0.02000000	     -4.83399739	     -3.30470271	   -178.80024014	      0.20639014	      0.94376874	     -0.92070786	     -4.28887846	     -9.21521050	    -15.23059659	      5.16134437	      0.09008245	      3.49713579	      0.00000000	      0.00000000	     -3.04764925	     -1.56243342	     -4.96516336	      4.98453877	      0.08699661	      3.32457128	      0.00000000	      0.00000000	    -12.00638841	     -3.51974635	     -1.05000888	    -10.34616461	    -66.63305381	    -55.57282833	     33.69036729	     32.00288634	      0.00000000	      0.00000000	    -17.39345557	    -73.02907889	    -52.88840361	     26.63309400	     87.43857057	      0.00000000	      0.00000000
      0.02500000	     -4.83697617	     -3.28527167	   -178.79233503	      0.20638579	      0.94377668	     -0.92071871	     -4.29262491	     -9.18476954	    -15.25013894	      5.15647210	      0.08999742	      3.47077378	      0.00000000	      0.00000000	     -3.05864205	     -1.57886667	     -4.96264639	      4.97050389	      0.08675166	      3.32221693	      0.00000000	      0.00000000	    -12.01403917	     -3.49779815	     -1.01471389	    -10.37438833	    -66.64057039	    -55.64788662	     33.60133928	     31.96318071	      0.00000000	      0.00000000	    -17.13938873	    -73.07115049	    -52.61237666	     26.56491334	     87.43151883	      0.00000000	      0.00000000
      0.03000000	     -4.80120062	     -3.30425276	   -178.79516781	      0.20640736	      0.94370565	     -0.92070107	     -4.23516465	     -9.21409533	    -15.25119221	      5.19131928	      0.09060561	      3.48518739	      0.00000000	      0.00000000	     -3.00799952	     -1.55854702	     -5.00527437	      4.98135654	      0.08694107	      3.32696804	      0.00000000	      0.00000000	    -11.97419738	     -3.51283936	     -1.04224797	    -10.42713186	    -66.62339632	    -55.62777395	     33.73464369	     31.97103224	      0.00000000	      0.00000000	    -17.28123595	    -73.06240970	    -52.76278474	     26.56355454	     87.44168244	      0.00000000	      0.00000000
      0.03500000	     -4.78929727	     -3.31490317	   -178.77582021	      0.20645712	      0.94369469	     -0.92066639	     -4.22392894	     -9.23151034	    -15.27443632	      5.19214349	      0.09062000	      3.49396619	      0.00000000	      0.00000000	     -2.99555938	     -1.55387952	     -4.92519161	      4.98073970	      0.08693031	      3.30702153	      0.00000000	      0.00000000	    -11.97221675	     -3.52349434	     -1.04405420	    -10.45049205	    -66.60690323	    -55.70195543	     33.73082199	     32.00219882	      0.00000000	      0.00000000	    -17.15235503	    -73.11247943	    -52.61967524	     26.49834255	     87.44128956	      0.00000000	      0.00000000
      0.04000000	     -4.80216661	     -3.31986322	   -178.80858587	      0.20642061	      0.94372514	     -0.92075512	     -4.23286987	     -9.22813727	    -15.23308977	      5.18167598	      0.09043731	      3.43664557	      0.00000000	      0.00000000	     -3.01779611	     -1.54069928	     -4.99214200	      4.96593008	      0.08667183	      3.28863533	      0.00000000	      0.00000000	    -11.98508788	     -3.53460711	     -1.01930808	    -10.47693801	    -66.58834689	    -55.70456231	     33.78726844	     31.96479835	      0.00000000	      0.00000000	    -17.19536868	    -73.11960845	    -52.67331658	     26.47684658	     87.48124253	      0.00000000	      0.00000000
      0.04500000	     -4.82456837	     -3.27970508	   -178.77405384	      0.20644100	      0.94377531	     -0.92071105	     -4.28136968	     -9.17955408	    -15.25445714	      5.15266111	      0.08993090	      3.45783266	      0.00000000	      0.00000000	     -3.03297444	     -1.58749464	     -4.96396185	      4.97380244	      0.08680923	      3.28933095	      0.00000000	      0.00000000	    -12.02416195	     -3.48432216	     -1.01368867	    -10.50216086	    -66.59192863	    -55.78686347	     33.73044636	     31.69478169	      0.00000000	      0.00000000	    -17.05418159	    -73.09796528	    -52.60331240	     26.51843596	     87.44016357	      0.00000000	      0.00000000
      0.05000000	     -4.79758555	     -3.32302698	   -178.75328552	      0.20646513	      0.94376653	     -0.92066328	     -4.26427733	     -9.22310104	    -15.27632442	      5.10733621	      0.08913983	      3.32109136	      0.00000000	      0.00000000	     -3.01664833	     -1.53801502	     -4.90402694	      4.91805190	      0.08583620	      3.06240956	      0.00000000	      0.00000000	    -11.99900577	     -3.53521995	     -1.00322379	    -10.53150318	    -66.57997285	    -55.83303383	     33.68830229	     31.43853088	      0.00000000	      0.00000000	    -16.90358178	    -73.13051982	    -52.41946364	     26.53162500	     87.20924175	      0.00000000	      0.00000000
      0.05500000	     -4.83241508	     -3.27135788	   -178.76477868	      0.20648379	      0.94378146	     -0.92069943	     -4.28280368	     -9.16896173	    -15.27516441	      5.17372457	      0.09029853	      3.50715656	      0.00000000	      0.00000000	     -3.03549734	     -1.59642773	     -4.96405119	      4.98161836	      0.08694564	      3.31961054	      0.00000000	      0.00000000	    -12.04909635	     -3.47488662	     -1.02691748	    -10.57387810	    -66.59137480	    -55.78055417	     33.82564130	     31.30142603	      0.00000000	      0.00000000	    -17.05248303	    -73.12072613	    -52.64734753	     26.47528893	     87.41267262	      0.00000000	      0.00000000
      0.06000000	     -4.82070026	     -3.26528941	   -178.71326531	      0.20650028	      0.94377876	     -0.92060021	     -4.27876930	     -9.16905666	    -15.34132380	      5.17718026	      0.09035884	      3.47713079	      0.00000000	      0.00000000	     -3.03836401	     -1.60355345	     -4.82718989	      4.93607574	      0.08615077	      3.28263587	      0.00000000	      0.00000000	    -12.04011745	     -3.45248331	     -1.03222829	    -10.67185472	    -66.58716330	    -55.88402853	     33.75991493	     31.33662769	      0.00000000	      0.00000000	    -16.82166057	    -73.12320554	    -52.49082854	     26.49734659	     87.51593774	      0.00000000	      0.00000000
      0.06500000	     -4.82865339	     -3.25964010	   -178.75513412	      0.20647187	      0.94377131	     -0.92071086	     -4.28766694	     -9.15258518	    -15.28317797	      5.15854315	      0.09003356	      3.50271565	      0.00000000	      0.00000000	     -3.03842408	     -1.61710971	     -4.94901128	      4.96859389	      0.08671832	      3.29056285	      0.00000000	      0.00000000	    -12.04358981	     -3.45389374	     -0.96934898	    -10.60505597	    -66.58418568	    -55.89725797	     33.75960680	     31.27357981	      0.00000000	      0.00000000	    -16.54340659	    -73.17495950	    -52.21217732	     26.34569997	     87.45703905	      0.00000000	      0.00000000
      0.07000000	     -4.87020108	     -3.23232476	   -178.70675586	      0.20645671	      0.94386682	     -0.92063973	     -4.35492228	     -9.11057819	    -15.37616369	      5.12398415	      0.08943039	      3.37547169	      0.00000000	      0.00000000	     -3.08674949	     -1.65069846	     -4.91135641	      4.94049312	      0.08622787	      3.18757204	      0.00000000	      0.00000000	    -12.09470343	     -3.41589553	     -0.96134573	    -10.60525511	    -66.56539012	    -55.97320365	     33.66176742	     31.19294776	      0.00000000	      0.00000000	    -16.30497320	    -73.17889364	    -51.99137909	     26.37722450	     87.37629392	      0.00000000	      0.00000000
      0.07500000	     -4.81212259	     -3.21089614	   -178.66862034	      0.20650635	      0.94380368	     -0.92057815	     -4.33152243	     -9.07658468	    -15.33519903	      5.03177690	      0.08782107	      3.22559789	      0.00000000	      0.00000000	     -3.02602201	     -1.67048692	     -4.81234853	      4.90062233	      0.08553200	      3.06879951	      0.00000000	      0.00000000	    -12.04180170	     -3.38054874	     -0.97534458	    -10.61565210	    -66.59833962	    -56.06397815	     33.58903367	     31.03131145	      0.00000000	      0.00000000	    -16.18588215	    -73.17369533	    -51.89608972	     26.35383993	     87.33016176	      0.00000000	      0.00000000
      0.08000000	     -4.82786741	     -3.23562990	   -178.70589137	      0.20653823	      0.94380011	     -0.92064176	     -4.33961738	     -9.10726841	    -15.28331078	      5.02976125	      0.08778589	      3.25103836	      0.00000000	      0.00000000	     -3.01808992	     -1.64877381	     -4.90016367	      4.98202315	      0.08695271	      3.21249514	      0.00000000	      0.00000000	    -12.05937862	     -3.42276547	     -0.95794220	    -10.61025752	    -66.55803755	    -55.98635283	     33.73944085	     30.74319861	      0.00000000	      0.00000000	    -16.32446442	    -73.20152259	    -51.97814581	     26.37232425	     87.40598501	      0.00000000	      0.00000000
